<svg width="36" height="36" viewBox="0 0 36 36" fill="none" xmlns="http://www.w3.org/2000/svg">
<path d="M16.9857 14.7805L11.153 20.9559L16.4611 18.0435L19.2346 20.9559L25.0345 14.7805L19.7853 17.6419L16.9857 14.7805Z" fill="#FBFBFE"/>
<path d="M18 0C8.06039 0 0 8.06039 0 18C0 27.9396 8.06039 36 18 36C27.9396 36 36 27.9396 36 18C36 8.06039 27.9396 0 18 0ZM18.1406 27.6353C17.0263 27.6353 15.9508 27.4779 14.9389 27.1865L11.3091 29.25V25.368C8.87778 23.5179 7.32513 20.7002 7.32513 17.5443C7.32513 11.971 12.1674 7.45312 18.1406 7.45312C24.1142 7.45312 28.9561 11.971 28.9561 17.5443C28.9561 23.1172 24.1142 27.6353 18.1406 27.6353V27.6353Z" fill="#FBFBFE"/>
</svg>
