<svg width="36" height="36" viewBox="0 0 36 36" fill="none" xmlns="http://www.w3.org/2000/svg">
<path d="M18 0C8.06039 0 0 8.06039 0 18C0 27.9396 8.06039 36 18 36C27.9396 36 36 27.9396 36 18C36 8.06039 27.9396 0 18 0ZM18.3815 28.4801C18.3812 28.4801 18.3818 28.4801 18.3815 28.4801H18.3771C16.574 28.4793 14.8022 28.0272 13.2286 27.1692L7.51767 28.6669L9.04614 23.0858C8.10324 21.4527 7.60721 19.5999 7.60803 17.7017C7.6105 11.7636 12.4434 6.93265 18.3815 6.93265C21.2632 6.93375 23.9683 8.05545 26.0022 10.0909C28.0363 12.1267 29.1558 14.8326 29.1547 17.7102C29.1522 23.6486 24.3188 28.4801 18.3815 28.4801V28.4801Z" fill="#FBFBFE"/>
<path d="M18.3851 8.75171C13.4459 8.75171 9.42902 12.7669 9.42682 17.7025C9.42627 19.3939 9.89978 21.041 10.796 22.4662L11.0089 22.8049L10.1041 26.1082L13.4931 25.2194L13.8203 25.4133C15.1949 26.229 16.7709 26.6605 18.3777 26.6611H18.3812C23.3166 26.6611 27.3334 22.6456 27.3356 17.7097C27.3365 15.3177 26.4059 13.0688 24.7154 11.3769C23.0249 9.685 20.7765 8.75253 18.3851 8.75171V8.75171ZM23.6519 21.5511C23.4275 22.1795 22.3522 22.7532 21.8351 22.8307C21.3712 22.8999 20.7845 22.9287 20.1396 22.7241C19.7485 22.6 19.2472 22.4344 18.6048 22.1572C15.9046 20.9916 14.1411 18.2736 14.0065 18.0939C13.8719 17.9143 12.9073 16.6347 12.9073 15.31C12.9073 13.9856 13.6027 13.3344 13.8494 13.0652C14.0963 12.7958 14.388 12.7285 14.5673 12.7285C14.7467 12.7285 14.9263 12.7301 15.0831 12.7378C15.2485 12.7461 15.4704 12.6749 15.6888 13.1998C15.9131 13.7387 16.4515 15.0631 16.5188 15.1977C16.5861 15.3325 16.6308 15.4896 16.5413 15.6692C16.4515 15.8489 16.1532 16.2364 15.8684 16.5896C15.7489 16.7377 15.5932 16.8695 15.7503 17.1389C15.9071 17.4081 16.4476 18.2895 17.2477 19.0031C18.276 19.9199 19.1434 20.2039 19.4126 20.3387C19.6815 20.4733 19.8386 20.4508 19.9957 20.2714C20.1525 20.0918 20.6686 19.4856 20.8479 19.2162C21.0273 18.9467 21.2069 18.9918 21.4536 19.0816C21.7005 19.1711 23.0238 19.8224 23.2929 19.9569C23.5621 20.0918 23.7415 20.1591 23.8087 20.2714C23.8763 20.3838 23.8763 20.9224 23.6519 21.5511V21.5511Z" fill="#FBFBFE"/>
</svg>
